<mxfile host="app.diagrams.net" modified="2023-09-19T10:00:55.722Z" agent="Mozilla/5.0 (Macintosh; Intel Mac OS X 10_15_7) AppleWebKit/537.36 (KHTML, like Gecko) Chrome/116.0.0.0 Safari/537.36" etag="ycJtGeNCgeJ6I_Kt9ZNs" version="21.6.1" type="github">
  <diagram name="第 1 页" id="s-VTrJqC6KMaNH1DyOUS">
    <mxGraphModel dx="1306" dy="774" grid="0" gridSize="10" guides="1" tooltips="1" connect="1" arrows="1" fold="1" page="1" pageScale="1" pageWidth="827" pageHeight="1169" math="0" shadow="0">
      <root>
        <mxCell id="0" />
        <mxCell id="1" parent="0" />
        <mxCell id="vjEIK40cHNx4W7QQ8n8l-1" value="Taro" style="rounded=1;whiteSpace=wrap;html=1;fillColor=#dae8fc;strokeColor=#6c8ebf;" vertex="1" parent="1">
          <mxGeometry x="210" y="570" width="430" height="30" as="geometry" />
        </mxCell>
        <mxCell id="vjEIK40cHNx4W7QQ8n8l-2" value="React" style="rounded=1;whiteSpace=wrap;html=1;" vertex="1" parent="1">
          <mxGeometry x="210" y="530" width="320" height="30" as="geometry" />
        </mxCell>
        <mxCell id="vjEIK40cHNx4W7QQ8n8l-3" value="浏览器" style="rounded=1;whiteSpace=wrap;html=1;" vertex="1" parent="1">
          <mxGeometry x="210" y="610" width="140" height="30" as="geometry" />
        </mxCell>
        <mxCell id="vjEIK40cHNx4W7QQ8n8l-5" value="小程序" style="rounded=1;whiteSpace=wrap;html=1;" vertex="1" parent="1">
          <mxGeometry x="360" y="610" width="140" height="30" as="geometry" />
        </mxCell>
        <mxCell id="vjEIK40cHNx4W7QQ8n8l-6" value="Components" style="rounded=1;whiteSpace=wrap;html=1;" vertex="1" parent="1">
          <mxGeometry x="210" y="490" width="100" height="30" as="geometry" />
        </mxCell>
        <mxCell id="vjEIK40cHNx4W7QQ8n8l-8" value="Hooks" style="rounded=1;whiteSpace=wrap;html=1;" vertex="1" parent="1">
          <mxGeometry x="320" y="490" width="100" height="30" as="geometry" />
        </mxCell>
        <mxCell id="vjEIK40cHNx4W7QQ8n8l-9" value="Hocs" style="rounded=1;whiteSpace=wrap;html=1;" vertex="1" parent="1">
          <mxGeometry x="430" y="490" width="100" height="30" as="geometry" />
        </mxCell>
        <mxCell id="vjEIK40cHNx4W7QQ8n8l-11" value="request" style="rounded=1;whiteSpace=wrap;html=1;" vertex="1" parent="1">
          <mxGeometry x="540" y="530" width="100" height="30" as="geometry" />
        </mxCell>
        <mxCell id="vjEIK40cHNx4W7QQ8n8l-12" value="apis" style="rounded=1;whiteSpace=wrap;html=1;" vertex="1" parent="1">
          <mxGeometry x="540" y="490" width="100" height="30" as="geometry" />
        </mxCell>
        <mxCell id="vjEIK40cHNx4W7QQ8n8l-13" value="..." style="rounded=1;whiteSpace=wrap;html=1;" vertex="1" parent="1">
          <mxGeometry x="510" y="610" width="130" height="30" as="geometry" />
        </mxCell>
        <mxCell id="vjEIK40cHNx4W7QQ8n8l-14" value="Pages" style="rounded=1;whiteSpace=wrap;html=1;" vertex="1" parent="1">
          <mxGeometry x="210" y="450" width="430" height="30" as="geometry" />
        </mxCell>
      </root>
    </mxGraphModel>
  </diagram>
</mxfile>
